<?xml version="1.0" encoding="UTF-8" standalone="no"?>
<!-- Created with Inkscape (http://www.inkscape.org/) -->

<svg
   width="920.75159mm"
   height="147.78624mm"
   viewBox="0 0 920.75156 147.78624"
   version="1.1"
   id="svg5"
   xml:space="preserve"
   inkscape:version="1.2.2 (b0a8486, 2022-12-01)"
   sodipodi:docname="logo3.svg"
   inkscape:export-filename="logo3.png"
   inkscape:export-xdpi="74.452454"
   inkscape:export-ydpi="74.452454"
   xmlns:inkscape="http://www.inkscape.org/namespaces/inkscape"
   xmlns:sodipodi="http://sodipodi.sourceforge.net/DTD/sodipodi-0.dtd"
   xmlns:xlink="http://www.w3.org/1999/xlink"
   xmlns="http://www.w3.org/2000/svg"
   xmlns:svg="http://www.w3.org/2000/svg"><sodipodi:namedview
     id="namedview7"
     pagecolor="#747474"
     bordercolor="#666666"
     borderopacity="1.0"
     inkscape:showpageshadow="2"
     inkscape:pageopacity="0.89411765"
     inkscape:pagecheckerboard="true"
     inkscape:deskcolor="#d1d1d1"
     inkscape:document-units="mm"
     showgrid="false"
     inkscape:zoom="0.14652943"
     inkscape:cx="313.93011"
     inkscape:cy="167.20191"
     inkscape:window-width="1680"
     inkscape:window-height="997"
     inkscape:window-x="0"
     inkscape:window-y="25"
     inkscape:window-maximized="0"
     inkscape:current-layer="layer2"
     inkscape:pageshadow="2"
     inkscape:snap-global="false"
     fit-margin-top="0"
     fit-margin-left="0"
     fit-margin-right="0"
     fit-margin-bottom="0" /><defs
     id="defs2"><linearGradient
       inkscape:collect="always"
       id="linearGradient19800"><stop
         style="stop-color:#aca075;stop-opacity:1;"
         offset="0"
         id="stop19794" /><stop
         style="stop-color:#7f9373;stop-opacity:0;"
         offset="1"
         id="stop19798" /></linearGradient><radialGradient
       inkscape:collect="always"
       xlink:href="#linearGradient19800"
       id="radialGradient18412"
       cx="143.75844"
       cy="124.53844"
       fx="143.75844"
       fy="124.53844"
       r="66.803307"
       gradientUnits="userSpaceOnUse"
       gradientTransform="matrix(1.8569534,-0.01037603,0.00304845,0.5455733,-108.64581,252.05033)" /><filter
       inkscape:collect="always"
       style="color-interpolation-filters:sRGB"
       id="filter21044"
       x="-0.17751479"
       y="-0.17751479"
       width="1.3550296"
       height="1.3550296"><feGaussianBlur
         inkscape:collect="always"
         stdDeviation="9.8821459"
         id="feGaussianBlur21046" /></filter><filter
       inkscape:label="Film Grain"
       inkscape:menu="Image Effects"
       inkscape:menu-tooltip="Adds a small scale graininess"
       style="color-interpolation-filters:sRGB"
       id="filter7453"
       x="0"
       y="0"
       width="1"
       height="1"><feTurbulence
         type="fractalNoise"
         numOctaves="3"
         baseFrequency="1"
         seed="0"
         result="result0"
         id="feTurbulence7443" /><feColorMatrix
         result="result4"
         values="0"
         type="saturate"
         id="feColorMatrix7445" /><feComposite
         in="SourceGraphic"
         in2="result4"
         operator="arithmetic"
         k1="1.25"
         k2="0.5"
         k3="0.5"
         result="result2"
         id="feComposite7447"
         k4="0" /><feBlend
         result="result5"
         mode="normal"
         in="result2"
         in2="SourceGraphic"
         id="feBlend7449" /><feComposite
         in="result5"
         in2="SourceGraphic"
         operator="in"
         result="result3"
         id="feComposite7451" /></filter></defs><g
     inkscape:label="Layer 1"
     inkscape:groupmode="layer"
     id="layer1"
     transform="translate(-1438.3329,634.841)"
     style="display:inline" /><g
     inkscape:groupmode="layer"
     id="layer2"
     inkscape:label="Layer 2"
     style="display:inline"
     transform="translate(-1405.6542,692.39018)"><g
       aria-label="RED"
       id="text4131"
       style="font-size:103.529px;line-height:1.25;font-family:Orbitron;-inkscape-font-specification:Orbitron;letter-spacing:2.49327px;fill:#c975a2;stroke-width:2.58821"><path
         d="m 1486.1651,-574.94293 -24.3293,-28.98812 h 10.9741 l 24.4328,28.88459 v 0.10353 z m -62.9456,0 v -74.43735 h 62.1174 q 3.4165,0 6.2117,1.75999 2.8989,1.65646 4.5553,4.45175 1.6565,2.79528 1.6565,6.21174 v 21.84462 q 0,3.41645 -1.6565,6.21174 -1.6564,2.79528 -4.5553,4.55527 -2.7952,1.65647 -6.2117,1.65647 h -53.7316 v 27.74577 z m 12.4235,-36.23515 h 49.6939 q 1.6565,0 2.7953,-1.13882 1.2423,-1.13882 1.2423,-2.79528 v -21.84462 q 0,-1.65647 -1.2423,-2.79529 -1.1388,-1.24234 -2.7953,-1.24234 h -49.6939 q -1.6565,0 -2.8988,1.24234 -1.1389,1.13882 -1.1389,2.79529 v 21.84462 q 0,1.65646 1.1389,2.79528 1.2423,1.13882 2.8988,1.13882 z"
         id="path484" /><path
         d="m 1511.3311,-574.94293 v -74.54088 h 68.0186 v 8.38585 h -59.6327 v 24.6399 h 47.9339 v 8.48938 h -47.9339 v 24.6399 h 59.6327 v 8.38585 z"
         id="path486" /><path
         d="m 1592.1852,-574.94293 v -74.54088 h 62.1174 q 3.4164,0 6.2117,1.65646 2.8988,1.65647 4.5553,4.55528 1.6564,2.79528 1.6564,6.21174 v 49.69392 q 0,3.41645 -1.6564,6.31527 -1.6565,2.79528 -4.5553,4.45174 -2.7953,1.65647 -6.2117,1.65647 z m 12.4234,-8.38585 h 49.694 q 1.6564,0 2.7952,-1.13882 1.2424,-1.24235 1.2424,-2.89881 v -49.69392 q 0,-1.65647 -1.2424,-2.79528 -1.1388,-1.24235 -2.7952,-1.24235 h -49.694 q -1.6564,0 -2.8988,1.24235 -1.1388,1.13881 -1.1388,2.79528 v 49.69392 q 0,1.65646 1.1388,2.89881 1.2424,1.13882 2.8988,1.13882 z"
         id="path488" /></g><path
       style="fill:#c975a2;fill-opacity:1;stroke:none;stroke-width:0.369062px;stroke-linecap:butt;stroke-linejoin:miter;stroke-opacity:1"
       d="m 1615.7094,-549.01576 c 65.0328,-12.73947 23.3665,-120.98535 93.2944,-120.98535 0.4985,0 21.1174,0.26223 21.1174,0.26223 0,0 -35.7069,-5.19892 -44.5771,57.64946 -5.6201,39.82269 -23.3964,63.2731 -45.7482,63.2731 -3.7352,0 -24.087,-0.19944 -24.087,-0.19944 z"
       id="path28612"
       sodipodi:nodetypes="cscsscc" /><g
       aria-label="HIFT"
       id="text56309"
       style="font-size:103.529px;line-height:1.25;font-family:Orbitron;-inkscape-font-specification:Orbitron;letter-spacing:-9.13898px;fill:#fefdfe;stroke-width:2.58821"><path
         d="m 1760.5763,-574.16333 v -74.54088 h 8.3859 v 33.02575 h 59.5291 v -33.02575 h 8.4894 v 74.54088 h -8.4894 v -33.02575 h -59.5291 v 33.02575 z"
         style="letter-spacing:0px"
         id="path491" /><path
         d="m 1849.6112,-574.16333 v -74.54088 h 8.4894 v 74.54088 z"
         style="letter-spacing:0px"
         id="path493" /><path
         d="m 1870.9381,-574.16333 v -74.54088 h 68.0186 v 8.38585 h -59.6328 v 24.6399 h 47.934 v 8.48938 h -47.934 v 33.02575 z"
         id="path495" /><path
         d="m 1966.8808,-574.16333 v 0 -66.15503 h -33.1293 v -8.38585 h 74.5409 v 8.38585 h -33.0257 v 66.15503 z"
         id="path497" /></g><path
       style="fill:#fc9dad;fill-opacity:1;stroke:none;stroke-width:0.369062px;stroke-linecap:butt;stroke-linejoin:miter;stroke-opacity:1"
       d="m 1635.9165,-549.01576 c 65.0326,-12.73947 23.3662,-120.98535 93.294,-120.98535 0.4987,0 21.1178,0.26223 21.1178,0.26223 0,0 -35.7071,-5.19892 -44.5774,57.64946 -5.6203,39.82269 -23.3964,63.2731 -45.748,63.2731 -3.735,0 -24.0873,-0.19944 -24.0873,-0.19944 z"
       id="path63470"
       sodipodi:nodetypes="cscsscc" /><path
       style="fill:#ffffff;fill-opacity:1;stroke:none;stroke-width:0.369062px;stroke-linecap:butt;stroke-linejoin:miter;stroke-opacity:1"
       d="m 1658.6696,-549.01576 c 65.0327,-12.73947 23.3668,-120.98535 93.2942,-120.98535 0.4986,0 21.1179,0.26223 21.1179,0.26223 0,0 -35.7072,-5.19892 -44.5772,57.64946 -5.6202,39.82269 -23.3965,63.2731 -45.7482,63.2731 -3.7353,0 -24.0871,-0.19944 -24.0871,-0.19944 z"
       id="path63472"
       sodipodi:nodetypes="cscsscc" /><text
       xml:space="preserve"
       style="font-style:normal;font-variant:normal;font-weight:normal;font-stretch:normal;font-size:103.529px;line-height:1.25;font-family:Orbitron;-inkscape-font-specification:Orbitron;text-align:start;letter-spacing:2.49327px;text-anchor:start;fill:#c975a2;fill-opacity:1;stroke-width:2.58821"
       x="1417.4219"
       y="-421.48456"
       id="text476"><tspan
         sodipodi:role="line"
         style="font-style:normal;font-variant:normal;font-weight:normal;font-stretch:normal;font-family:Orbitron;-inkscape-font-specification:Orbitron;text-align:start;text-anchor:start;fill:#c975a2;fill-opacity:1;stroke-width:2.58821"
         x="1417.4219"
         y="-421.48456"
         dx="0 0 0 -0.94233936 0 -0.94233936"
         id="tspan474"><tspan
           id="tspan472"
           style="font-style:normal;font-variant:normal;font-weight:normal;font-stretch:normal;font-family:Orbitron;-inkscape-font-specification:Orbitron;text-align:start;text-anchor:start;fill:#c975a2;fill-opacity:1;stroke-width:2.58821"
           dx="0 0 -0.94233936">RED</tspan></tspan></text><text
       xml:space="preserve"
       style="font-style:normal;font-variant:normal;font-weight:normal;font-stretch:normal;font-size:103.529px;line-height:1.25;font-family:Orbitron;-inkscape-font-specification:Orbitron;text-align:start;letter-spacing:-9.13898px;text-anchor:start;fill:#fefdfe;fill-opacity:1;stroke-width:2.58821"
       x="1754.6752"
       y="-420.70496"
       id="text482"><tspan
         sodipodi:role="line"
         style="font-style:normal;font-variant:normal;font-weight:normal;font-stretch:normal;font-family:Orbitron;-inkscape-font-specification:Orbitron;text-align:start;text-anchor:start;fill:#fefdfe;fill-opacity:1;stroke-width:2.58821"
         x="1754.6752"
         y="-420.70496"
         dx="0 0 0 0 -0.94233936 0 -0.94233936"
         id="tspan480"><tspan
   style="font-style:normal;font-variant:normal;font-weight:normal;font-stretch:normal;font-family:Orbitron;-inkscape-font-specification:Orbitron;letter-spacing:0px;fill:#fefdfe;fill-opacity:1;stroke-width:2.58821"
   id="tspan478">HI</tspan>FT</tspan></text></g><g
     inkscape:groupmode="layer"
     id="layer4"
     inkscape:label="Layer 4"
     style="display:inline"
     transform="translate(-1405.6542,692.39018)" /><g
     inkscape:groupmode="layer"
     id="layer3"
     inkscape:label="Layer 3"
     style="display:none"
     transform="translate(-1405.6542,692.39018)"><g
       id="g2268"><path
         id="path2259"
         style="fill:#283645;fill-opacity:1;stroke-width:0.600001;stroke-linecap:round"
         d="m 69.116118,21.728733 -30.887,17.83302 v 35.665524 l 30.887,17.83302 30.887522,-17.83302 V 39.561753 Z m 0,10.351823 21.92269,12.657109 v 25.3137 L 69.116118,82.708474 47.193938,70.051365 v -25.3137 z" /><path
         style="fill:none;stroke:#2e3e4f;stroke-width:1.2;stroke-linecap:butt;stroke-linejoin:bevel;stroke-dasharray:none;stroke-opacity:1"
         d="m 44.419598,68.658356 v 2.994797 l 24.69667,14.258748 24.69666,-14.258749 -49.39333,-28.517495 24.69667,-14.258747 24.69666,14.258747 v 3.043622"
         id="path2261"
         sodipodi:nodetypes="ccccccc" /><path
         sodipodi:type="star"
         style="fill:none;fill-opacity:1;stroke:#2e3e4f;stroke-width:1.2;stroke-linecap:butt;stroke-linejoin:bevel;stroke-dasharray:none;stroke-opacity:1"
         id="path2263"
         inkscape:flatsided="true"
         sodipodi:sides="6"
         sodipodi:cx="66.803307"
         sodipodi:cy="66.803299"
         sodipodi:r1="35.665684"
         sodipodi:r2="30.887388"
         sodipodi:arg1="0.52359878"
         sodipodi:arg2="1.0471976"
         inkscape:rounded="0"
         inkscape:randomized="0"
         d="M 97.690695,84.636141 66.803306,102.46898 35.915918,84.636141 l 0,-35.665684 30.887389,-17.832842 30.887388,17.832842 z"
         transform="translate(2.3129582,-9.4089006)" /></g><path
       id="path27844"
       style="fill:#283645;fill-opacity:1;stroke-width:0.600001;stroke-linecap:round"
       d="m 66.803158,151.79615 -30.887004,17.83302 v 35.66552 l 30.887004,17.83302 30.88752,-17.83302 v -35.66552 z m 0,10.35182 21.922692,12.65711 v 25.3137 L 66.803158,212.77589 44.880981,200.11878 v -25.3137 z" /><path
       style="fill:none;stroke:#374a5f;stroke-width:0.4;stroke-linecap:butt;stroke-linejoin:bevel;stroke-dasharray:none;stroke-opacity:1"
       d="m 42.10664,198.72577 v 2.9948 l 24.696665,14.25875 24.696666,-14.25875 -49.39333,-28.5175 24.696663,-14.25874 24.696666,14.25874 v 3.04363"
       id="path28168"
       sodipodi:nodetypes="ccccccc" /><path
       sodipodi:type="star"
       style="fill:none;fill-opacity:1;stroke:#2e3e4f;stroke-width:1.2;stroke-linecap:butt;stroke-linejoin:bevel;stroke-dasharray:none;stroke-opacity:1"
       id="path38707"
       inkscape:flatsided="true"
       sodipodi:sides="6"
       sodipodi:cx="66.803307"
       sodipodi:cy="66.803299"
       sodipodi:r1="35.665684"
       sodipodi:r2="30.887388"
       sodipodi:arg1="0.52359878"
       sodipodi:arg2="1.0471976"
       inkscape:rounded="0"
       inkscape:randomized="0"
       d="M 97.690695,84.636141 66.803306,102.46898 35.915918,84.636141 l 0,-35.665684 30.887389,-17.832842 30.887388,17.832842 z"
       transform="translate(0,120.65852)" /><text
       xml:space="preserve"
       style="font-style:oblique;font-weight:500;font-size:12.0179px;line-height:1.25;font-family:'CMU Bright';-inkscape-font-specification:'CMU Bright Medium Oblique';fill:#eaeaea;fill-opacity:1;stroke-width:0.300447"
       x="32.392784"
       y="236.98663"
       id="text33811"><tspan
         sodipodi:role="line"
         id="tspan33809"
         style="font-style:italic;font-variant:normal;font-weight:normal;font-stretch:normal;font-family:'DIN Alternate';-inkscape-font-specification:'DIN Alternate Italic';fill:#eaeaea;fill-opacity:1;stroke-width:0.300447"
         x="32.392784"
         y="236.98663">OTHERSPACE</tspan></text><g
       id="g44759"
       transform="translate(-1.2396423,-45.040344)"><path
         id="path44744"
         style="fill:#283645;fill-opacity:1;stroke-width:0.600001;stroke-linecap:round"
         d="m 66.803158,-79.288348 -30.887004,17.833019 v 35.665524 l 30.887004,17.8330202 30.88752,-17.8330202 v -35.665524 z m 0,10.351822 21.922692,12.657109 v 25.3137 L 66.803158,-18.308608 44.880981,-30.965717 v -25.3137 z" /><path
         style="fill:none;stroke:#dacccc;stroke-width:1.4;stroke-linecap:butt;stroke-linejoin:bevel;stroke-dasharray:none;stroke-opacity:1"
         d="m 44.88086,-33.62411 v 2.658363 l 21.922445,12.656929 21.922446,-12.65693 -43.84489,-25.313859 21.922443,-12.656928 21.922446,12.656928 v 2.701704"
         id="path44746"
         sodipodi:nodetypes="ccccccc" /><path
         sodipodi:type="star"
         style="fill:none;fill-opacity:1;stroke:#dacccc;stroke-width:1.2;stroke-linecap:butt;stroke-linejoin:bevel;stroke-dasharray:none;stroke-opacity:1"
         id="path44748"
         inkscape:flatsided="true"
         sodipodi:sides="6"
         sodipodi:cx="66.803307"
         sodipodi:cy="66.803299"
         sodipodi:r1="35.665684"
         sodipodi:r2="30.887388"
         sodipodi:arg1="0.52359975"
         sodipodi:arg2="1.0471985"
         inkscape:rounded="0"
         inkscape:randomized="0"
         d="M 97.690677,84.636171 66.803272,102.46898 35.915901,84.636111 35.915936,48.970427 66.803341,31.137615 97.690712,48.970487 Z"
         transform="translate(0,-110.42598)" /><text
         xml:space="preserve"
         style="font-style:oblique;font-weight:500;font-size:13.5643px;line-height:1.25;font-family:'CMU Bright';-inkscape-font-specification:'CMU Bright Medium Oblique';fill:#eaeaea;fill-opacity:1;stroke-width:0.339108"
         x="27.96492"
         y="-38.997204"
         id="text44752"><tspan
           sodipodi:role="line"
           id="tspan44750"
           style="font-style:italic;font-variant:normal;font-weight:normal;font-stretch:normal;font-family:'DIN Alternate';-inkscape-font-specification:'DIN Alternate Italic';fill:#eaeaea;fill-opacity:1;stroke-width:0.339108"
           x="27.96492"
           y="-38.997204">OTHERSPACE</tspan></text></g><text
       xml:space="preserve"
       style="font-style:oblique;font-weight:500;font-size:12.0179px;line-height:1.25;font-family:'CMU Bright';-inkscape-font-specification:'CMU Bright Medium Oblique';fill:#283645;fill-opacity:1;stroke-width:0.300447"
       x="32.392677"
       y="146.71942"
       id="text47777"><tspan
         sodipodi:role="line"
         id="tspan47775"
         style="font-style:italic;font-variant:normal;font-weight:normal;font-stretch:normal;font-family:'DIN Alternate';-inkscape-font-specification:'DIN Alternate Italic';fill:#283645;fill-opacity:1;stroke-width:0.300447"
         x="32.392677"
         y="146.71942">OTHERSPACE</tspan></text><g
       id="g346"
       transform="translate(120.85329,81.087672)"><path
         id="path342"
         style="fill:#283645;fill-opacity:1;stroke-width:0.600001;stroke-linecap:round"
         d="M 66.803158,27.320893 35.916154,45.153912 v 35.665524 l 30.887004,17.83302 30.88752,-17.83302 V 45.153912 Z m 0,10.351822 21.922692,12.657109 v 25.3137 L 66.803158,88.300633 44.880981,75.643524 v -25.3137 z" /><path
         style="fill:none;stroke:#dacccc;stroke-width:1.4;stroke-linecap:butt;stroke-linejoin:miter;stroke-dasharray:none;stroke-opacity:1"
         d="m 42.478291,74.080915 v 2.949702 L 66.803305,91.074671 91.12832,77.030616 42.478292,48.94251 66.803304,34.898458 91.128319,48.94251 v 2.997795"
         id="path344"
         sodipodi:nodetypes="ccccccc" /></g><path
       id="path2350"
       style="fill:none;fill-opacity:1;stroke:#000000;stroke-width:0.600001;stroke-linecap:round;stroke-opacity:1"
       d="m 188.70121,-50.970049 -30.887,17.833018 V 2.5284932 l 30.887,17.8330218 30.88752,-17.8330218 V -33.137031 Z m 0,10.351821 21.92269,12.657109 V -2.6474188 L 188.70121,10.009691 166.77904,-2.6474188 V -27.961119 Z" /><path
       style="fill:none;stroke:#000000;stroke-width:1.4;stroke-linecap:butt;stroke-linejoin:miter;stroke-dasharray:none;stroke-opacity:1"
       d="m 164.37635,-4.2100268 v 2.949702 l 24.32501,14.0440528 24.32501,-14.0440548 -48.65002,-28.0881062 24.32501,-14.044052 24.32501,14.044052 v 2.997795"
       id="path2352"
       sodipodi:nodetypes="ccccccc" /><g
       id="g5763"><path
         style="fill:none;stroke:#283645;stroke-width:1.4;stroke-linecap:butt;stroke-linejoin:bevel;stroke-dasharray:none;stroke-opacity:1"
         d="m 116.5832,217.54899 v 2.9497 l 24.32502,14.04405 24.32501,-14.04405 -48.65002,-28.08811 24.32501,-14.04405 24.32501,14.04405 v 2.9978"
         id="path5751"
         sodipodi:nodetypes="ccccccc" /><circle
         style="fill:#ab6e75;fill-opacity:1;stroke:#283645;stroke-width:0.8;stroke-dasharray:none;stroke-opacity:1"
         id="circle5753"
         cx="140.90822"
         cy="206.45464"
         r="17.807146" /><path
         sodipodi:type="star"
         style="fill:none;stroke:#283645;stroke-width:1.2;stroke-dasharray:none;stroke-opacity:1"
         id="path5755"
         inkscape:flatsided="true"
         sodipodi:sides="6"
         sodipodi:cx="66.8032"
         sodipodi:cy="66.8032"
         sodipodi:r1="30.537058"
         sodipodi:r2="26.445866"
         sodipodi:arg1="1.0471976"
         sodipodi:arg2="1.5707963"
         inkscape:rounded="0"
         inkscape:randomized="0"
         d="m 82.071727,93.249068 -30.537057,-10e-7 -15.268528,-26.445869 15.26853,-26.445867 30.537058,2e-6 15.268528,26.445868 z"
         transform="translate(74.105023,139.65144)" /><path
         sodipodi:type="star"
         style="fill:none;stroke:#283645;stroke-width:1.2;stroke-dasharray:none;stroke-opacity:1"
         id="path5757"
         inkscape:flatsided="true"
         sodipodi:sides="6"
         sodipodi:cx="66.8032"
         sodipodi:cy="66.8032"
         sodipodi:r1="30.537058"
         sodipodi:r2="26.445866"
         sodipodi:arg1="1.0471976"
         sodipodi:arg2="1.5707963"
         inkscape:rounded="0"
         inkscape:randomized="0"
         d="m 82.071727,93.249068 -30.537057,-10e-7 -15.268528,-26.445869 15.26853,-26.445867 30.537058,2e-6 15.268528,26.445868 z"
         transform="rotate(30,-156.73742,274.91077)" /></g><g
       id="g7011"
       transform="translate(-101.65957,131.51032)"><path
         style="fill:none;stroke:#283645;stroke-width:1.41015;stroke-linecap:round;stroke-linejoin:round;stroke-dasharray:none;stroke-opacity:1"
         d="m 42.301797,77.977995 v 2.97109 L 66.803195,95.094973 91.304594,80.949083 42.301798,52.657307 66.803194,38.51142 91.304593,52.657307 v 3.019532"
         id="path7002"
         sodipodi:nodetypes="ccccccc" /><circle
         style="fill:#283645;fill-opacity:1;stroke:#283645;stroke-width:0.8;stroke-dasharray:none;stroke-opacity:1"
         id="circle7004"
         cx="66.8032"
         cy="66.803192"
         r="17.807146" /><path
         sodipodi:type="star"
         style="fill:none;stroke:#283645;stroke-width:0.9;stroke-dasharray:none;stroke-opacity:1"
         id="path7006"
         inkscape:flatsided="true"
         sodipodi:sides="6"
         sodipodi:cx="66.8032"
         sodipodi:cy="66.8032"
         sodipodi:r1="30.537058"
         sodipodi:r2="26.445866"
         sodipodi:arg1="1.0471976"
         sodipodi:arg2="1.5707963"
         inkscape:rounded="0"
         inkscape:randomized="0"
         d="m 82.071727,93.249068 -30.537057,-10e-7 -15.268528,-26.445869 15.26853,-26.445867 30.537058,2e-6 15.268528,26.445868 z" /></g><g
       id="g363"
       transform="translate(75.742377,-123.01348)"><path
         style="fill:none;stroke:#283645;stroke-width:1.41015;stroke-linecap:round;stroke-linejoin:round;stroke-dasharray:none;stroke-opacity:1"
         d="m 42.301904,74.605374 v 2.97109 L 66.803302,91.722352 91.304701,77.576462 42.301905,49.284686 66.803301,35.138799 91.3047,49.284686 v 3.019532"
         id="path32780"
         sodipodi:nodetypes="ccccccc" /><circle
         style="fill:#283645;fill-opacity:1;stroke:#283645;stroke-width:0.8;stroke-dasharray:none;stroke-opacity:1"
         id="path2530"
         cx="66.803307"
         cy="63.430573"
         r="17.807146" /><path
         sodipodi:type="star"
         style="fill:none;stroke:#283645;stroke-width:0.9;stroke-dasharray:none;stroke-opacity:1"
         id="path2584"
         inkscape:flatsided="true"
         sodipodi:sides="6"
         sodipodi:cx="66.8032"
         sodipodi:cy="66.8032"
         sodipodi:r1="30.537058"
         sodipodi:r2="26.445866"
         sodipodi:arg1="1.0471976"
         sodipodi:arg2="1.5707963"
         inkscape:rounded="0"
         inkscape:randomized="0"
         d="m 82.071727,93.249068 -30.537057,-10e-7 -15.268528,-26.445869 15.26853,-26.445867 30.537058,2e-6 15.268528,26.445868 z"
         transform="translate(1.0681152e-4,-3.3726213)" /><path
         sodipodi:type="star"
         style="fill:none;stroke:#283645;stroke-width:0.9;stroke-dasharray:none;stroke-opacity:1"
         id="path362"
         inkscape:flatsided="true"
         sodipodi:sides="6"
         sodipodi:cx="66.8032"
         sodipodi:cy="66.8032"
         sodipodi:r1="30.537058"
         sodipodi:r2="26.445866"
         sodipodi:arg1="1.0471976"
         sodipodi:arg2="1.5707963"
         inkscape:rounded="0"
         inkscape:randomized="0"
         d="m 82.071727,93.249068 -30.537057,-10e-7 -15.268528,-26.445869 15.26853,-26.445867 30.537058,2e-6 15.268528,26.445868 z"
         transform="matrix(0.80234946,0,0,0.80234946,13.203795,9.831067)" /></g><rect
       style="mix-blend-mode:normal;fill:url(#radialGradient18412);fill-opacity:1;stroke-width:0.600001;stroke-linecap:round;filter:url(#filter21044)"
       id="rect18410"
       width="133.60661"
       height="133.60661"
       x="49.082859"
       y="251.70023"
       transform="translate(-32.678677,-57.549172)" /></g></svg>
