<?xml version="1.0" encoding="UTF-8" standalone="no"?>
<!-- Created with Inkscape (http://www.inkscape.org/) -->

<svg
   width="300mm"
   height="100mm"
   viewBox="0 0 300 100"
   version="1.1"
   id="svg5"
   inkscape:version="1.2.1 (9c6d41e4, 2022-07-14)"
   sodipodi:docname="anthrometry.svg"
   inkscape:export-filename="anthrometry1.png"
   inkscape:export-xdpi="96"
   inkscape:export-ydpi="96"
   xmlns:inkscape="http://www.inkscape.org/namespaces/inkscape"
   xmlns:sodipodi="http://sodipodi.sourceforge.net/DTD/sodipodi-0.dtd"
   xmlns="http://www.w3.org/2000/svg"
   xmlns:svg="http://www.w3.org/2000/svg">
  <sodipodi:namedview
     id="namedview7"
     pagecolor="#ffffff"
     bordercolor="#666666"
     borderopacity="1.0"
     inkscape:showpageshadow="2"
     inkscape:pageopacity="0.0"
     inkscape:pagecheckerboard="0"
     inkscape:deskcolor="#d1d1d1"
     inkscape:document-units="mm"
     showgrid="false"
     inkscape:zoom="2.1121605"
     inkscape:cx="565.53467"
     inkscape:cy="161.91951"
     inkscape:window-width="2560"
     inkscape:window-height="1440"
     inkscape:window-x="0"
     inkscape:window-y="0"
     inkscape:window-maximized="0"
     inkscape:current-layer="g6728" />
  <defs
     id="defs2" />
  <g
     inkscape:label="Layer 1"
     inkscape:groupmode="layer"
     id="layer1"
     style="display:none">
    <path
       style="fill:none;stroke:#000000;stroke-width:0.610054;stroke-linecap:butt;stroke-linejoin:miter;stroke-dasharray:none;stroke-opacity:1"
       d="m -19.492334,70.202126 c -4.382996,2.139991 -8.404122,4.909616 -12.37649,7.718335 -0.663939,0.414981 -2.659424,1.541833 -0.857489,1.840049 1.795222,0.163311 3.656684,-0.05841 5.371538,0.631134 2.366438,0.553398 4.697385,1.441032 6.556653,3.04935 0.208585,0.152478 0.417252,0.304847 0.626872,0.455906"
       id="path265" />
    <path
       style="fill:#83472d;fill-opacity:1;stroke:#000000;stroke-width:0.708753;stroke-linecap:butt;stroke-linejoin:miter;stroke-dasharray:none;stroke-opacity:1"
       d="m -21.501576,71.104853 c -1.162109,2.140914 -2.055885,4.411739 -2.554026,6.741393 -0.146521,1.180711 0.01604,3.675836 1.999952,3.287895 1.677571,-0.322832 2.174736,-1.974842 2.170646,-3.289586 0.193782,-2.050272 0.20227,-4.22444 -0.842219,-6.112081 -0.160757,-0.244803 -0.370714,0.06361 -0.35346,0.212288"
       id="path267" />
    <path
       style="fill:#000000;fill-opacity:1;stroke:#000000;stroke-width:0.373232;stroke-linecap:butt;stroke-linejoin:miter;stroke-dasharray:none;stroke-opacity:1"
       d="m -21.382687,73.730337 c -0.712244,1.429818 -1.462452,2.96436 -1.369515,4.548047 0.812179,1.65641 2.694518,-0.03433 2.254187,-1.295448 0.0667,-0.545039 0.0061,-3.062966 -0.66303,-2.810323"
       id="path931" />
    <path
       style="fill:#dabfb2;fill-opacity:1;stroke:#63533e;stroke-width:0.636026;stroke-linecap:butt;stroke-linejoin:miter;stroke-dasharray:none;stroke-opacity:1"
       d="m 110.29651,68.337826 c 1.47259,-0.982731 3.35463,-0.383806 5.00459,-0.694008 2.00903,-0.170269 3.85084,-1.11603 5.89098,-1.084917 2.06138,-0.449735 3.80887,0.741127 4.92994,2.382583 1.27069,1.711214 2.44876,3.601125 2.63173,5.780319 0.49791,1.793616 -0.49963,3.492624 -2.10933,4.265803 -1.48683,1.378611 -3.63687,0.897342 -5.48441,1.099078 -1.77034,0.344886 -3.4434,-0.401893 -5.02334,-1.074527 -2.45798,-0.677886 -5.09472,-0.580051 -7.46523,-1.566522 l -0.3137,-0.0559"
       id="path980" />
    <path
       style="fill:#dabfb2;fill-opacity:1;stroke:#63533e;stroke-width:0.63296;stroke-linecap:butt;stroke-linejoin:miter;stroke-dasharray:none;stroke-opacity:1"
       d="m 123.28957,66.465841 c 2.13227,0.173153 4.26202,0.08814 6.39115,-0.03363 2.36387,0.0086 4.7418,-0.07883 7.09019,-0.208707 1.09416,-0.0286 4.59261,0.131516 3.00069,1.784749 -1.48723,0.923955 -3.35034,0.692055 -4.99248,1.162832 -2.73954,0.618947 -5.5439,0.855092 -8.34337,0.941055 -0.30795,-0.115669 -0.82974,0.164681 -1.04092,1.16e-4"
       id="path951" />
    <path
       style="fill:#dabfb2;fill-opacity:1;stroke:#63533e;stroke-width:0.63296;stroke-linecap:butt;stroke-linejoin:miter;stroke-dasharray:none;stroke-opacity:1"
       d="m 125.28403,69.920342 c 2.13227,0.173154 4.26202,0.08814 6.39114,-0.03363 2.36388,0.0086 4.74181,-0.07883 7.0902,-0.208707 1.09416,-0.0286 4.59261,0.131516 3.00069,1.784748 -1.48724,0.923956 -3.35035,0.692055 -4.99248,1.162833 -2.73954,0.618946 -5.5439,0.855091 -8.34337,0.941055 -0.30795,-0.11567 -0.82975,0.16468 -1.04092,1.16e-4"
       id="path953" />
    <path
       style="fill:#dabfb2;fill-opacity:1;stroke:#63533e;stroke-width:0.636026;stroke-linecap:butt;stroke-linejoin:miter;stroke-dasharray:none;stroke-opacity:1"
       d="m 126.06761,73.050396 c 0.43066,0.0072 0.86618,-0.04312 1.29199,0.02173 1.04722,0.15949 1.41436,0.334677 2.22984,0.75971 0.61798,0.322097 1.2531,0.61514 1.84601,0.981322 0.51204,0.316227 1.33773,0.822627 1.18916,1.616448 -0.1478,0.789593 -0.76104,1.259191 -1.28405,1.764893 -0.21895,0.211712 -0.42172,0.441555 -0.65686,0.635136 -0.11406,0.0939 -0.25589,0.147738 -0.38383,0.221605 -0.064,0.03694 -0.12794,0.07387 -0.19192,0.110803 -0.064,0.03694 -0.12089,0.0905 -0.19192,0.110806 -0.22457,0.06427 -0.45338,0.126493 -0.68655,0.140486 -0.1043,0.0062 -0.19844,-0.08737 -0.30272,-0.08111 -0.0737,0.0044 -0.11954,0.096 -0.19192,0.110802 -0.16183,0.03309 -0.3298,0.04033 -0.49464,0.02969 -0.10424,-0.0067 -0.20181,-0.05408 -0.30272,-0.08111 -0.10091,-0.02704 -0.20181,-0.05408 -0.30271,-0.08111"
       id="path966" />
    <path
       style="fill:#dabfb2;fill-opacity:1;stroke:#63533e;stroke-width:0.636026;stroke-linecap:butt;stroke-linejoin:miter;stroke-dasharray:none;stroke-opacity:1"
       d="m 125.83222,75.74518 c 0.32976,-0.01979 0.67018,-0.144878 0.98928,-0.05938 0.22563,0.06046 0.35644,0.302523 0.52432,0.464945 0.21889,0.211777 0.42744,0.434097 0.63513,0.656866 0.46442,0.498124 0.89162,1.032089 1.38106,1.50565 0.66075,0.639296 1.74429,0.845528 1.02692,2.221888 -0.27526,0.528112 -0.92971,0.746914 -1.42453,1.078339 -0.42961,0.287767 -0.89561,0.517082 -1.34341,0.775622 -0.12795,0.07387 -0.24178,0.181003 -0.38384,0.221609 -0.37436,0.107087 -0.75103,-0.0096 -1.10007,-0.132543 -0.28364,-0.09987 -1.6219,-0.595825 -2.03794,-0.870509 -0.19493,-0.128709 -0.34074,-0.320497 -0.52432,-0.464951 -0.12977,-0.102161 -0.28994,-0.163438 -0.41352,-0.273029 -0.0553,-0.04904 -0.18017,-0.166611 -0.11081,-0.191916 l 3.01183,-1.099152"
       id="path986"
       sodipodi:nodetypes="cssssssscsscssc" />
    <path
       style="fill:#ffffff;fill-opacity:0.98983;stroke:none;stroke-width:0.264583px;stroke-linecap:butt;stroke-linejoin:miter;stroke-opacity:1"
       d="M 28.379627,47.644124 250.6597,8.5866301 V 48.188137 Z"
       id="path6610" />
    <path
       style="fill:none;stroke:#9c9c9c;stroke-width:0.8;stroke-linecap:butt;stroke-linejoin:miter;stroke-dasharray:none;stroke-opacity:1"
       d="M 28.340798,47.725161 250.44011,8.9734591"
       id="path2065" />
    <path
       style="fill:none;stroke:#5a3434;stroke-width:0.8;stroke-linecap:butt;stroke-linejoin:miter;stroke-dasharray:none;stroke-opacity:1"
       d="M 143.14995,47.725161 V 27.770927"
       id="path2067" />
    <path
       style="fill:none;stroke:#43724b;stroke-width:0.8;stroke-linecap:butt;stroke-linejoin:miter;stroke-dasharray:none;stroke-opacity:1"
       d="M 250.15093,47.725161 V 8.6842671"
       id="path2069"
       sodipodi:nodetypes="cc" />
    <path
       style="fill:none;stroke:#c636ca;stroke-width:0.8;stroke-linecap:butt;stroke-linejoin:miter;stroke-dasharray:none;stroke-opacity:1"
       d="M 250.29553,47.869758 H 28.485399"
       id="path2071"
       sodipodi:nodetypes="cc" />
    <path
       style="fill:none;stroke:#eca61c;stroke-width:0.8;stroke-linecap:butt;stroke-linejoin:miter;stroke-dasharray:none;stroke-opacity:1"
       d="M 142.42698,47.869758 H 28.485399"
       id="path2900"
       sodipodi:nodetypes="cc" />
    <path
       style="fill:#43724b;fill-opacity:1;stroke:#183d17;stroke-width:0.630822;stroke-linecap:butt;stroke-linejoin:miter;stroke-dasharray:none;stroke-opacity:1"
       d="m 248.48146,61.883758 c -0.69768,-0.514144 -1.23912,-1.69042 -2.09306,-1.542436 -1.31014,0.227036 -2.4342,1.328442 -3.14749,2.450594 -0.28833,0.453599 1.15378,1.668338 0.65244,1.474563 -0.66887,-0.258532 -0.60839,-1.942338 -1.29055,-1.721205 -1.06046,1.056973 -2.12094,2.11394 -3.18142,3.170908 0.0596,0.267511 0.3756,0.611825 0.17876,0.802524 -0.69913,0.677329 -2.61588,0.500251 -2.52372,1.469306 1.01574,10.680515 2.43994,0.862975 4.95472,3.626428 0.64017,0.703474 -7.76965,4.713474 2.69722,2.509387 0.99237,-0.208965 1.10525,-1.702071 1.70687,-2.518466 0.0902,-0.122384 -0.23104,0.288749 -0.16443,0.425399 0.59303,1.216505 0.99374,2.674744 2.07347,3.49068 0.52168,0.394226 1.32093,-0.18425 1.89997,-0.488013 0.87763,-0.460414 1.62437,-1.138863 2.39324,-1.764215 0.18647,-0.151672 0.44802,-0.315788 0.45933,-0.555889 0.007,-0.151866 -0.5672,-0.219235 -0.4254,-0.164425 1.03925,0.401686 1.22875,0.938793 1.73554,-0.06262 0.24022,-0.474764 0.33527,-1.014136 0.57549,-1.488903 0.10852,-0.214475 0.33193,-0.759753 0.45933,-0.555889 0.45924,0.734997 0.32802,1.732244 0.749,2.489793 1.46182,2.630455 2.74184,3.514504 4.56852,-0.434478 0.53491,-1.156475 0.0826,-2.551375 0.2519,-3.814266 0.0915,-0.682217 0.84022,-1.383478 0.52722,-1.996512 -2.41934,-4.738512 -2.03749,-2.498866 -4.52934,-3.462011 -0.15853,-0.06127 -0.22878,-0.251416 -0.34318,-0.377121 -0.88298,-0.667261 -1.563,-1.788244 -2.64896,-2.001781 -0.568,-0.111686 -0.85853,0.785051 -1.21358,1.242268 -0.13984,0.180116 -0.0602,0.769448 -0.24664,0.638102 -0.3515,-0.247668 -0.1758,-0.924565 -0.52196,-1.179655 -1.60273,-1.181103 -1.61942,-0.141941 -2.48978,0.74899 -0.0751,0.07691 -0.19661,0.087 -0.29492,0.130487"
       id="path3417" />
    <path
       id="path3419"
       style="fill:#726052;fill-opacity:1;stroke:#4d493e;stroke-width:0.561019;stroke-linecap:butt;stroke-linejoin:miter;stroke-dasharray:none;stroke-opacity:1"
       d="m 247.56966,65.815521 c -2.21298,1.54337 -0.0103,4.753058 -0.14218,6.937639 1.13916,3.654592 -0.49423,7.300205 -1.22651,10.855314 -0.27348,1.801146 -2.71657,4.795054 0.60355,4.280794 1.61774,-0.277238 6.50675,1.160074 3.61762,-1.672466 -1.18507,-2.297355 -0.66791,-5.104924 -0.71392,-7.633203 -0.003,-2.425821 1.13883,-4.885633 3.14004,-6.318299 1.4265,-0.611793 2.9917,-3.256255 0.42271,-1.72529 -2.02003,2.82864 -4.96676,2.454366 -5.03434,-1.182377 -0.48191,-1.106228 -0.94177,-2.317625 -0.66697,-3.542112 z" />
    <text
       xml:space="preserve"
       style="font-style:oblique;font-weight:500;font-size:15.9492px;line-height:1.25;font-family:'CMU Bright';-inkscape-font-specification:'CMU Bright Medium Oblique';fill:#43724b;fill-opacity:1;stroke-width:0.398732"
       x="253.28978"
       y="42.740314"
       id="text3810"><tspan
         sodipodi:role="line"
         id="tspan3808"
         style="fill:#43724b;fill-opacity:1;stroke-width:0.398732"
         x="253.28978"
         y="42.740314">h</tspan></text>
    <text
       xml:space="preserve"
       style="font-style:oblique;font-weight:500;font-size:15.9492px;line-height:1.25;font-family:'CMU Bright';-inkscape-font-specification:'CMU Bright Medium Oblique';fill:#c636ca;fill-opacity:1;stroke-width:0.398732"
       x="195.42636"
       y="61.225216"
       id="text4416"><tspan
         sodipodi:role="line"
         id="tspan4414"
         style="fill:#c636ca;fill-opacity:1;stroke-width:0.398732"
         x="195.42636"
         y="61.225216">d</tspan></text>
    <text
       xml:space="preserve"
       style="font-style:oblique;font-weight:500;font-size:15.9492px;line-height:1.25;font-family:'CMU Bright';-inkscape-font-specification:'CMU Bright Medium Oblique';fill:#5a3434;fill-opacity:1;stroke-width:0.398732"
       x="145.22418"
       y="42.897678"
       id="text4696"><tspan
         sodipodi:role="line"
         id="tspan4694"
         style="fill:#5a3434;fill-opacity:1;stroke-width:0.398732"
         x="145.22418"
         y="42.897678">f</tspan></text>
    <text
       xml:space="preserve"
       style="font-style:oblique;font-weight:500;font-size:15.9492px;line-height:1.25;font-family:'CMU Bright';-inkscape-font-specification:'CMU Bright Medium Oblique';fill:#eca61c;fill-opacity:1;stroke-width:0.398732"
       x="84.174942"
       y="61.170097"
       id="text4838"><tspan
         sodipodi:role="line"
         id="tspan4836"
         style="fill:#eca61c;fill-opacity:1;stroke-width:0.398732"
         x="84.174942"
         y="61.170097">a</tspan></text>
    <path
       style="fill:#eceae7;fill-opacity:1;stroke:#7b570f;stroke-width:0.435918;stroke-linecap:butt;stroke-linejoin:miter;stroke-dasharray:none;stroke-opacity:1"
       d="m 49.090629,67.195055 c 18.25465,0.658945 36.537758,2.421441 54.803801,1.064217 2.3868,0.668694 6.28444,-1.755157 7.52591,1.136086 -0.34209,2.674205 -1.34803,5.500018 -2.7655,7.791116 -2.06652,2.199575 -5.15366,0.444357 -7.72982,1.039341 -6.962793,0.06316 -13.942303,-0.0096 -20.875173,0.752364 -4.506851,0.148109 -8.998877,0.746105 -13.411952,1.57211 -5.40466,-0.0077 -10.87217,0.08027 -16.135902,1.427276"
       id="path4870" />
    <path
       style="fill:#eca61c;fill-opacity:1;stroke:#7b570f;stroke-width:0.544118;stroke-linecap:butt;stroke-linejoin:miter;stroke-dasharray:none;stroke-opacity:1"
       d="m 29.339896,65.816546 c 23.158723,0.809254 46.353544,2.973787 69.52674,1.306972 3.028004,0.821226 7.972734,-2.15552 9.547724,1.395234 -0.434,3.284208 -1.71017,6.754607 -3.50844,9.568318 -2.6217,2.701312 -6.538186,0.545718 -9.806416,1.276421 -8.833346,0.07758 -17.687888,-0.01175 -26.483261,0.923984 -5.717607,0.181894 -11.416406,0.916295 -17.015045,1.930718 -6.856611,-0.0094 -13.792956,0.09857 -20.470779,1.752846"
       id="path4868" />
  </g>
  <g
     inkscape:label="Layer 1 copy"
     inkscape:groupmode="layer"
     id="g6728"
     style="display:inline">
    <path
       style="fill:none;stroke:#000000;stroke-width:0.610054;stroke-linecap:butt;stroke-linejoin:miter;stroke-dasharray:none;stroke-opacity:1"
       d="m -19.492334,70.202126 c -4.382996,2.139991 -8.404122,4.909616 -12.37649,7.718335 -0.663939,0.414981 -2.659424,1.541833 -0.857489,1.840049 1.795222,0.163311 3.656684,-0.05841 5.371538,0.631134 2.366438,0.553398 4.697385,1.441032 6.556653,3.04935 0.208585,0.152478 0.417252,0.304847 0.626872,0.455906"
       id="path6674" />
    <path
       style="fill:#83472d;fill-opacity:1;stroke:#000000;stroke-width:0.708753;stroke-linecap:butt;stroke-linejoin:miter;stroke-dasharray:none;stroke-opacity:1"
       d="m -21.501576,71.104853 c -1.162109,2.140914 -2.055885,4.411739 -2.554026,6.741393 -0.146521,1.180711 0.01604,3.675836 1.999952,3.287895 1.677571,-0.322832 2.174736,-1.974842 2.170646,-3.289586 0.193782,-2.050272 0.20227,-4.22444 -0.842219,-6.112081 -0.160757,-0.244803 -0.370714,0.06361 -0.35346,0.212288"
       id="path6676" />
    <path
       style="fill:#000000;fill-opacity:1;stroke:#000000;stroke-width:0.373232;stroke-linecap:butt;stroke-linejoin:miter;stroke-dasharray:none;stroke-opacity:1"
       d="m -21.382687,73.730337 c -0.712244,1.429818 -1.462452,2.96436 -1.369515,4.548047 0.812179,1.65641 2.694518,-0.03433 2.254187,-1.295448 0.0667,-0.545039 0.0061,-3.062966 -0.66303,-2.810323"
       id="path6678" />
    <path
       style="fill:#dabfb2;fill-opacity:1;stroke:#63533e;stroke-width:0.636026;stroke-linecap:butt;stroke-linejoin:miter;stroke-dasharray:none;stroke-opacity:1"
       d="m 128.83598,68.337826 c 1.47259,-0.982731 3.35463,-0.383806 5.00459,-0.694008 2.00903,-0.170269 3.85084,-1.11603 5.89098,-1.084917 2.06138,-0.449735 3.80887,0.741127 4.92994,2.382583 1.27069,1.711214 2.44876,3.601125 2.63173,5.780319 0.49791,1.793616 -0.49963,3.492624 -2.10933,4.265803 -1.48683,1.378611 -3.63687,0.897342 -5.48441,1.099078 -1.77034,0.344886 -3.4434,-0.401893 -5.02334,-1.074527 -2.45798,-0.677886 -5.09472,-0.580051 -7.46523,-1.566522 l -0.3137,-0.0559"
       id="path6680" />
    <path
       style="fill:#dabfb2;fill-opacity:1;stroke:#63533e;stroke-width:0.63296;stroke-linecap:butt;stroke-linejoin:miter;stroke-dasharray:none;stroke-opacity:1"
       d="m 141.82904,66.465841 c 2.13227,0.173153 4.26202,0.08814 6.39115,-0.03363 2.36387,0.0086 4.7418,-0.07883 7.09019,-0.208707 1.09416,-0.0286 4.59261,0.131516 3.00069,1.784749 -1.48723,0.923955 -3.35034,0.692055 -4.99248,1.162832 -2.73954,0.618947 -5.5439,0.855092 -8.34337,0.941055 -0.30795,-0.115669 -0.82974,0.164681 -1.04092,1.16e-4"
       id="path6682" />
    <path
       style="fill:#dabfb2;fill-opacity:1;stroke:#63533e;stroke-width:0.63296;stroke-linecap:butt;stroke-linejoin:miter;stroke-dasharray:none;stroke-opacity:1"
       d="m 143.8235,69.920342 c 2.13227,0.173154 4.26202,0.08814 6.39114,-0.03363 2.36388,0.0086 4.74181,-0.07883 7.0902,-0.208707 1.09416,-0.0286 4.59261,0.131516 3.00069,1.784748 -1.48724,0.923956 -3.35035,0.692055 -4.99248,1.162833 -2.73954,0.618946 -5.5439,0.855091 -8.34337,0.941055 -0.30795,-0.11567 -0.82975,0.16468 -1.04092,1.16e-4"
       id="path6684" />
    <path
       style="fill:#dabfb2;fill-opacity:1;stroke:#63533e;stroke-width:0.63296;stroke-linecap:butt;stroke-linejoin:miter;stroke-dasharray:none;stroke-opacity:1"
       d="m 142.91495,72.568234 c 2.08415,0.482562 4.2035,0.709354 6.32759,0.899691 2.3373,0.35358 4.70252,0.61421 7.04471,0.828535 1.08662,0.131429 4.52422,0.800524 2.70802,2.203662 -1.60619,0.696956 -3.41549,0.195567 -5.10875,0.421589 -2.80055,0.212406 -5.60934,0.03665 -8.39137,-0.286967 -0.28776,-0.159384 -0.8449,0.04179 -1.02978,-0.151835"
       id="path6976" />
    <path
       style="fill:#dabfb2;fill-opacity:1;stroke:#63533e;stroke-width:0.636026;stroke-linecap:butt;stroke-linejoin:miter;stroke-dasharray:none;stroke-opacity:1"
       d="m 144.37169,75.74518 c 0.32976,-0.01979 0.67018,-0.144878 0.98928,-0.05938 0.22563,0.06046 0.35644,0.302523 0.52432,0.464945 0.21889,0.211777 0.42744,0.434097 0.63513,0.656866 0.46442,0.498124 0.89162,1.032089 1.38106,1.50565 0.66075,0.639296 1.74429,0.845528 1.02692,2.221888 -0.27526,0.528112 -0.92971,0.746914 -1.42453,1.078339 -0.42961,0.287767 -0.89561,0.517082 -1.34341,0.775622 -0.12795,0.07387 -0.24178,0.181003 -0.38384,0.221609 -0.37436,0.107087 -0.75103,-0.0096 -1.10007,-0.132543 -0.28364,-0.09987 -1.6219,-0.595825 -2.03794,-0.870509 -0.19493,-0.128709 -0.34074,-0.320497 -0.52432,-0.464951 -0.12977,-0.102161 -0.28994,-0.163438 -0.41352,-0.273029 -0.0553,-0.04904 -0.18017,-0.166611 -0.11081,-0.191916 l 3.01183,-1.099152"
       id="path6688"
       sodipodi:nodetypes="cssssssscsscssc" />
    <path
       style="fill:#ffffff;fill-opacity:1;stroke:#5a3434;stroke-width:0.264583px;stroke-linecap:butt;stroke-linejoin:miter;stroke-opacity:1"
       d="M 46.919095,47.644124 236.50457,8.5866301 237.1309,48.188137 Z"
       id="path6692"
       sodipodi:nodetypes="cccc" />
    <path
       style="fill:none;stroke:#9c9c9c;stroke-width:0.8;stroke-linecap:butt;stroke-linejoin:miter;stroke-dasharray:none;stroke-opacity:1"
       d="M 46.880266,47.725161 236.66078,8.9734591"
       id="path6694"
       sodipodi:nodetypes="cc" />
    <path
       style="fill:none;stroke:#5a3434;stroke-width:0.8;stroke-linecap:butt;stroke-linejoin:miter;stroke-dasharray:none;stroke-opacity:1"
       d="M 161.68942,47.725161 V 23.88766"
       id="path6696"
       sodipodi:nodetypes="cc" />
    <path
       style="fill:none;stroke:#43724b;stroke-width:0.8;stroke-linecap:butt;stroke-linejoin:miter;stroke-dasharray:none;stroke-opacity:1"
       d="M 236.7474,47.725161 V 8.6842671"
       id="path6698"
       sodipodi:nodetypes="cc" />
    <path
       style="fill:none;stroke:#c636ca;stroke-width:0.8;stroke-linecap:butt;stroke-linejoin:miter;stroke-dasharray:none;stroke-opacity:1"
       d="M 237.39306,47.869758 H 47.024867"
       id="path6700"
       sodipodi:nodetypes="cc" />
    <path
       style="fill:none;stroke:#eca61c;stroke-width:0.8;stroke-linecap:butt;stroke-linejoin:miter;stroke-dasharray:none;stroke-opacity:1"
       d="M 160.96645,47.869758 H 47.024867"
       id="path6702"
       sodipodi:nodetypes="cc" />
    <path
       style="fill:#43724b;fill-opacity:1;stroke:#183d17;stroke-width:0.630822;stroke-linecap:butt;stroke-linejoin:miter;stroke-dasharray:none;stroke-opacity:1"
       d="m 238.58539,61.883758 c -0.69768,-0.514144 -1.23912,-1.69042 -2.09306,-1.542436 -1.31014,0.227036 -2.4342,1.328442 -3.14749,2.450594 -0.28833,0.453599 1.15378,1.668338 0.65244,1.474563 -0.66887,-0.258532 -0.60839,-1.942338 -1.29055,-1.721205 -1.06046,1.056973 -2.12094,2.11394 -3.18142,3.170908 0.0596,0.267511 0.3756,0.611825 0.17876,0.802524 -0.69913,0.677329 -2.61588,0.500251 -2.52372,1.469306 1.01574,10.680515 2.43994,0.862975 4.95472,3.626428 0.64017,0.703474 -7.76965,4.713474 2.69722,2.509387 0.99237,-0.208965 1.10525,-1.702071 1.70687,-2.518466 0.0902,-0.122384 -0.23104,0.288749 -0.16443,0.425399 0.59303,1.216505 0.99374,2.674744 2.07347,3.49068 0.52168,0.394226 1.32093,-0.18425 1.89997,-0.488013 0.87763,-0.460414 1.62437,-1.138863 2.39324,-1.764215 0.18647,-0.151672 0.44802,-0.315788 0.45933,-0.555889 0.007,-0.151866 -0.5672,-0.219235 -0.4254,-0.164425 1.03925,0.401686 1.22875,0.938793 1.73554,-0.06262 0.24022,-0.474764 0.33527,-1.014136 0.57549,-1.488903 0.10852,-0.214475 0.33193,-0.759753 0.45933,-0.555889 0.45924,0.734997 0.32802,1.732244 0.749,2.489793 1.46182,2.630455 2.74184,3.514504 4.56852,-0.434478 0.53491,-1.156475 0.0826,-2.551375 0.2519,-3.814266 0.0915,-0.682217 0.84022,-1.383478 0.52722,-1.996512 -2.41934,-4.738512 -2.03749,-2.498866 -4.52934,-3.462011 -0.15853,-0.06127 -0.22878,-0.251416 -0.34318,-0.377121 -0.88298,-0.667261 -1.563,-1.788244 -2.64896,-2.001781 -0.568,-0.111686 -0.85853,0.785051 -1.21358,1.242268 -0.13984,0.180116 -0.0602,0.769448 -0.24664,0.638102 -0.3515,-0.247668 -0.1758,-0.924565 -0.52196,-1.179655 -1.60273,-1.181103 -1.61942,-0.141941 -2.48978,0.74899 -0.0751,0.07691 -0.19661,0.087 -0.29492,0.130487"
       id="path6704" />
    <path
       id="path6706"
       style="fill:#726052;fill-opacity:1;stroke:#4d493e;stroke-width:0.561019;stroke-linecap:butt;stroke-linejoin:miter;stroke-dasharray:none;stroke-opacity:1"
       d="m 237.67359,65.815521 c -2.21298,1.54337 -0.0103,4.753058 -0.14218,6.937639 1.13916,3.654592 -0.49423,7.300205 -1.22651,10.855314 -0.27348,1.801146 -2.71657,4.795054 0.60355,4.280794 1.61774,-0.277238 6.50675,1.160074 3.61762,-1.672466 -1.18507,-2.297355 -0.66791,-5.104924 -0.71392,-7.633203 -0.003,-2.425821 1.13883,-4.885633 3.14004,-6.318299 1.4265,-0.611793 2.9917,-3.256255 0.42271,-1.72529 -2.02003,2.82864 -4.96676,2.454366 -5.03434,-1.182377 -0.48191,-1.106228 -0.94177,-2.317625 -0.66697,-3.542112 z" />
    <text
       xml:space="preserve"
       style="font-style:oblique;font-weight:500;font-size:15.9492px;line-height:1.25;font-family:'CMU Bright';-inkscape-font-specification:'CMU Bright Medium Oblique';fill:#43724b;fill-opacity:1;stroke-width:0.398732"
       x="240.51259"
       y="40.736046"
       id="text6710"><tspan
         sodipodi:role="line"
         id="tspan6708"
         style="fill:#43724b;fill-opacity:1;stroke-width:0.398732"
         x="240.51259"
         y="40.736046">h</tspan></text>
    <text
       xml:space="preserve"
       style="font-style:oblique;font-weight:500;font-size:15.9492px;line-height:1.25;font-family:'CMU Bright';-inkscape-font-specification:'CMU Bright Medium Oblique';fill:#c636ca;fill-opacity:1;stroke-width:0.398732"
       x="183.40077"
       y="61.225216"
       id="text6714"><tspan
         sodipodi:role="line"
         id="tspan6712"
         style="fill:#c636ca;fill-opacity:1;stroke-width:0.398732"
         x="183.40077"
         y="61.225216">d – s</tspan></text>
    <text
       xml:space="preserve"
       style="font-style:oblique;font-weight:500;font-size:15.9492px;line-height:1.25;font-family:'CMU Bright';-inkscape-font-specification:'CMU Bright Medium Oblique';fill:#5a3434;fill-opacity:1;stroke-width:0.398732"
       x="163.76366"
       y="40.89341"
       id="text6718"><tspan
         sodipodi:role="line"
         id="tspan6716"
         style="fill:#5a3434;fill-opacity:1;stroke-width:0.398732"
         x="163.76366"
         y="40.89341">f'</tspan></text>
    <text
       xml:space="preserve"
       style="font-style:oblique;font-weight:500;font-size:15.9492px;line-height:1.25;font-family:'CMU Bright';-inkscape-font-specification:'CMU Bright Medium Oblique';fill:#eca61c;fill-opacity:1;stroke-width:0.398732"
       x="102.71441"
       y="61.170097"
       id="text6722"><tspan
         sodipodi:role="line"
         id="tspan6720"
         style="fill:#eca61c;fill-opacity:1;stroke-width:0.398732"
         x="102.71441"
         y="61.170097">a</tspan></text>
    <path
       style="fill:#eceae7;fill-opacity:1;stroke:#7b570f;stroke-width:0.435918;stroke-linecap:butt;stroke-linejoin:miter;stroke-dasharray:none;stroke-opacity:1"
       d="m 67.630097,67.195055 c 18.25465,0.658945 36.537763,2.421441 54.803803,1.064217 2.3868,0.668694 6.28444,-1.755157 7.52591,1.136086 -0.34209,2.674205 -1.34803,5.500018 -2.7655,7.791116 -2.06652,2.199575 -5.15366,0.444357 -7.72982,1.039341 -6.96279,0.06316 -13.9423,-0.0096 -20.875175,0.752364 -4.506851,0.148109 -8.998877,0.746105 -13.411952,1.57211 -5.40466,-0.0077 -10.87217,0.08027 -16.135902,1.427276"
       id="path6724" />
    <path
       style="fill:#eca61c;fill-opacity:1;stroke:#7b570f;stroke-width:0.544118;stroke-linecap:butt;stroke-linejoin:miter;stroke-dasharray:none;stroke-opacity:1"
       d="m 47.879364,65.816546 c 23.158723,0.809254 46.353544,2.973787 69.526736,1.306972 3.02801,0.821226 7.97274,-2.15552 9.54773,1.395234 -0.434,3.284208 -1.71017,6.754607 -3.50844,9.568318 -2.6217,2.701312 -6.53819,0.545718 -9.80642,1.276421 -8.83334,0.07758 -17.687886,-0.01175 -26.483259,0.923984 -5.717607,0.181894 -11.416406,0.916295 -17.015045,1.930718 -6.856611,-0.0094 -13.792956,0.09857 -20.470779,1.752846"
       id="path6726" />
  </g>
</svg>
