<?xml version="1.0" encoding="UTF-8" standalone="no"?>
<!-- Created with Inkscape (http://www.inkscape.org/) -->

<svg
   width="300mm"
   height="100mm"
   viewBox="0 0 300 100"
   version="1.1"
   id="svg5"
   inkscape:version="1.2.1 (9c6d41e4, 2022-07-14)"
   sodipodi:docname="anthrometry.svg"
   inkscape:export-filename="anthrometry1.png"
   inkscape:export-xdpi="96"
   inkscape:export-ydpi="96"
   xmlns:inkscape="http://www.inkscape.org/namespaces/inkscape"
   xmlns:sodipodi="http://sodipodi.sourceforge.net/DTD/sodipodi-0.dtd"
   xmlns="http://www.w3.org/2000/svg"
   xmlns:svg="http://www.w3.org/2000/svg">
  <sodipodi:namedview
     id="namedview7"
     pagecolor="#ffffff"
     bordercolor="#666666"
     borderopacity="1.0"
     inkscape:showpageshadow="2"
     inkscape:pageopacity="0.0"
     inkscape:pagecheckerboard="0"
     inkscape:deskcolor="#d1d1d1"
     inkscape:document-units="mm"
     showgrid="false"
     inkscape:zoom="1.0560803"
     inkscape:cx="598.91281"
     inkscape:cy="194.11403"
     inkscape:window-width="2560"
     inkscape:window-height="1440"
     inkscape:window-x="0"
     inkscape:window-y="0"
     inkscape:window-maximized="0"
     inkscape:current-layer="g6728" />
  <defs
     id="defs2" />
  <g
     inkscape:label="Layer 1"
     inkscape:groupmode="layer"
     id="layer1"
     style="display:none">
    <path
       style="fill:none;stroke:#000000;stroke-width:0.610054;stroke-linecap:butt;stroke-linejoin:miter;stroke-dasharray:none;stroke-opacity:1"
       d="m -19.492334,70.202126 c -4.382996,2.139991 -8.404122,4.909616 -12.37649,7.718335 -0.663939,0.414981 -2.659424,1.541833 -0.857489,1.840049 1.795222,0.163311 3.656684,-0.05841 5.371538,0.631134 2.366438,0.553398 4.697385,1.441032 6.556653,3.04935 0.208585,0.152478 0.417252,0.304847 0.626872,0.455906"
       id="path265" />
    <path
       style="fill:#83472d;fill-opacity:1;stroke:#000000;stroke-width:0.708753;stroke-linecap:butt;stroke-linejoin:miter;stroke-dasharray:none;stroke-opacity:1"
       d="m -21.501576,71.104853 c -1.162109,2.140914 -2.055885,4.411739 -2.554026,6.741393 -0.146521,1.180711 0.01604,3.675836 1.999952,3.287895 1.677571,-0.322832 2.174736,-1.974842 2.170646,-3.289586 0.193782,-2.050272 0.20227,-4.22444 -0.842219,-6.112081 -0.160757,-0.244803 -0.370714,0.06361 -0.35346,0.212288"
       id="path267" />
    <path
       style="fill:#000000;fill-opacity:1;stroke:#000000;stroke-width:0.373232;stroke-linecap:butt;stroke-linejoin:miter;stroke-dasharray:none;stroke-opacity:1"
       d="m -21.382687,73.730337 c -0.712244,1.429818 -1.462452,2.96436 -1.369515,4.548047 0.812179,1.65641 2.694518,-0.03433 2.254187,-1.295448 0.0667,-0.545039 0.0061,-3.062966 -0.66303,-2.810323"
       id="path931" />
    <g
       id="g1052"
       transform="matrix(0.38314794,0.66363171,-0.66363171,0.38314794,169.41836,-68.151849)"
       style="stroke:#63533e;stroke-opacity:1">
      <path
         style="fill:#dabfb2;fill-opacity:1;stroke:#63533e;stroke-width:0.83;stroke-linecap:butt;stroke-linejoin:miter;stroke-dasharray:none;stroke-opacity:1"
         d="m 115.67673,155.87433 c -0.14978,-2.30546 1.7551,-4.04164 2.48111,-6.10874 1.11844,-2.38159 1.25136,-5.08021 2.61769,-7.36556 0.83676,-2.6231 3.32283,-3.821 5.9094,-4.01694 2.76303,-0.31951 5.66758,-0.41775 8.24977,0.79737 2.35193,0.6076 3.62117,2.84355 3.44466,5.16724 0.58789,2.57986 -1.35889,4.69569 -2.3364,6.91531 -0.76536,2.22578 -2.70098,3.62931 -4.49205,4.97599 -2.36991,2.33555 -3.97979,5.37929 -6.64138,7.41465 l -0.26786,0.31805"
         id="path980" />
      <path
         style="fill:#dabfb2;fill-opacity:1;stroke:#63533e;stroke-width:0.826;stroke-linecap:butt;stroke-linejoin:miter;stroke-dasharray:none;stroke-opacity:1"
         d="m 122.03895,139.96884 c 1.58697,-2.29679 2.88053,-4.75919 4.13215,-7.24486 1.55216,-2.66589 3.00489,-5.41036 4.39041,-8.14913 0.6816,-1.25522 3.14526,-5.1045 3.97494,-2.22668 0.0738,2.28366 -1.40394,4.23793 -1.94337,6.40096 -1.08802,3.49993 -2.65096,6.82335 -4.38043,10.04324 -0.33166,0.27256 -0.35529,1.04519 -0.67906,1.17647"
         id="path951" />
      <path
         style="fill:#dabfb2;fill-opacity:1;stroke:#63533e;stroke-width:0.826;stroke-linecap:butt;stroke-linejoin:miter;stroke-dasharray:none;stroke-opacity:1"
         d="m 127.2444,139.96884 c 1.58697,-2.29679 2.88053,-4.75919 4.13215,-7.24486 1.55216,-2.66589 3.00489,-5.41036 4.39041,-8.14913 0.6816,-1.25522 3.14526,-5.1045 3.97494,-2.22668 0.0738,2.28366 -1.40394,4.23793 -1.94337,6.40096 -1.08802,3.49993 -2.65096,6.82335 -4.38043,10.04324 -0.33166,0.27256 -0.35529,1.04519 -0.67906,1.17647"
         id="path953" />
      <path
         style="fill:#dabfb2;fill-opacity:1;stroke:#63533e;stroke-width:0.83;stroke-linecap:butt;stroke-linejoin:miter;stroke-dasharray:none;stroke-opacity:1"
         d="m 131.29309,141.12561 c 0.28919,-0.48199 0.51644,-1.00705 0.86757,-1.44596 0.86355,-1.07945 1.30109,-1.38006 2.31353,-2.02434 0.76724,-0.48824 1.51283,-1.01481 2.31354,-1.44596 0.69148,-0.37234 1.80254,-0.97507 2.60273,-0.2892 0.79592,0.68223 0.9265,1.68169 1.15676,2.60273 0.0964,0.38559 0.22385,0.76472 0.2892,1.15677 0.0317,0.19017 0,0.38559 0,0.57838 0,0.0964 0,0.19279 0,0.28919 0,0.0964 0.0234,0.19568 0,0.2892 -0.0739,0.29573 -0.15287,0.59492 -0.2892,0.86757 -0.061,0.12194 -0.22822,0.16726 -0.28919,0.28919 -0.0431,0.0862 0.0305,0.19774 0,0.28919 -0.0682,0.20449 -0.16962,0.39904 -0.28919,0.57839 -0.0756,0.11343 -0.1928,0.19279 -0.28919,0.28919 -0.0964,0.0964 -0.1928,0.19279 -0.28919,0.28919"
         id="path966" />
      <path
         style="fill:#dabfb2;fill-opacity:1;stroke:#63533e;stroke-width:0.83;stroke-linecap:butt;stroke-linejoin:miter;stroke-dasharray:none;stroke-opacity:1"
         d="m 134.185,143.14995 c 0.1928,-0.38559 0.27355,-0.85193 0.57839,-1.15677 0.21555,-0.21555 0.57447,-0.20544 0.86757,-0.28919 0.38216,-0.10919 0.76949,-0.19982 1.15677,-0.28919 0.86598,-0.19984 1.74818,-0.33423 2.60273,-0.57838 1.15363,-0.32961 2.0937,-1.4196 3.18111,0.28919 0.41724,0.65567 0.23749,1.53807 0.28919,2.31353 0.0449,0.67329 0,1.34956 0,2.02434 0,0.1928 0.0468,0.39135 0,0.57839 -0.12324,0.49295 -0.50093,0.84249 -0.86758,1.15676 -0.29794,0.25538 -1.73164,1.44421 -2.31353,1.73516 -0.27265,0.13632 -0.58454,0.17597 -0.86758,0.28919 -0.20013,0.08 -0.37389,0.22103 -0.57838,0.28919 -0.0915,0.0305 -0.30585,0.0949 -0.28919,0 l 0.72298,-4.12098"
         id="path986"
         sodipodi:nodetypes="cssssssscsscssc" />
    </g>
    <path
       style="fill:#ececec;fill-opacity:1;stroke:none;stroke-width:0.264583px;stroke-linecap:butt;stroke-linejoin:miter;stroke-opacity:1"
       d="M 28.379627,47.644124 250.6597,8.5866301 V 48.188137 Z"
       id="path6610" />
    <path
       style="fill:none;stroke:#9c9c9c;stroke-width:0.8;stroke-linecap:butt;stroke-linejoin:miter;stroke-dasharray:none;stroke-opacity:1"
       d="M 28.340798,47.725161 250.44011,8.9734591"
       id="path2065" />
    <path
       style="fill:none;stroke:#5a3434;stroke-width:0.8;stroke-linecap:butt;stroke-linejoin:miter;stroke-dasharray:none;stroke-opacity:1"
       d="M 143.14995,47.725161 V 27.770927"
       id="path2067" />
    <path
       style="fill:none;stroke:#43724b;stroke-width:0.8;stroke-linecap:butt;stroke-linejoin:miter;stroke-dasharray:none;stroke-opacity:1"
       d="M 250.15093,47.725161 V 8.6842671"
       id="path2069"
       sodipodi:nodetypes="cc" />
    <path
       style="fill:none;stroke:#c636ca;stroke-width:0.8;stroke-linecap:butt;stroke-linejoin:miter;stroke-dasharray:none;stroke-opacity:1"
       d="M 250.29553,47.869758 H 28.485399"
       id="path2071"
       sodipodi:nodetypes="cc" />
    <path
       style="fill:none;stroke:#eca61c;stroke-width:0.8;stroke-linecap:butt;stroke-linejoin:miter;stroke-dasharray:none;stroke-opacity:1"
       d="M 142.42698,47.869758 H 28.485399"
       id="path2900"
       sodipodi:nodetypes="cc" />
    <path
       style="fill:#43724b;fill-opacity:1;stroke:#183d17;stroke-width:0.630822;stroke-linecap:butt;stroke-linejoin:miter;stroke-dasharray:none;stroke-opacity:1"
       d="m 248.48146,61.883758 c -0.69768,-0.514144 -1.23912,-1.69042 -2.09306,-1.542436 -1.31014,0.227036 -2.4342,1.328442 -3.14749,2.450594 -0.28833,0.453599 1.15378,1.668338 0.65244,1.474563 -0.66887,-0.258532 -0.60839,-1.942338 -1.29055,-1.721205 -1.06046,1.056973 -2.12094,2.11394 -3.18142,3.170908 0.0596,0.267511 0.3756,0.611825 0.17876,0.802524 -0.69913,0.677329 -2.61588,0.500251 -2.52372,1.469306 1.01574,10.680515 2.43994,0.862975 4.95472,3.626428 0.64017,0.703474 -7.76965,4.713474 2.69722,2.509387 0.99237,-0.208965 1.10525,-1.702071 1.70687,-2.518466 0.0902,-0.122384 -0.23104,0.288749 -0.16443,0.425399 0.59303,1.216505 0.99374,2.674744 2.07347,3.49068 0.52168,0.394226 1.32093,-0.18425 1.89997,-0.488013 0.87763,-0.460414 1.62437,-1.138863 2.39324,-1.764215 0.18647,-0.151672 0.44802,-0.315788 0.45933,-0.555889 0.007,-0.151866 -0.5672,-0.219235 -0.4254,-0.164425 1.03925,0.401686 1.22875,0.938793 1.73554,-0.06262 0.24022,-0.474764 0.33527,-1.014136 0.57549,-1.488903 0.10852,-0.214475 0.33193,-0.759753 0.45933,-0.555889 0.45924,0.734997 0.32802,1.732244 0.749,2.489793 1.46182,2.630455 2.74184,3.514504 4.56852,-0.434478 0.53491,-1.156475 0.0826,-2.551375 0.2519,-3.814266 0.0915,-0.682217 0.84022,-1.383478 0.52722,-1.996512 -2.41934,-4.738512 -2.03749,-2.498866 -4.52934,-3.462011 -0.15853,-0.06127 -0.22878,-0.251416 -0.34318,-0.377121 -0.88298,-0.667261 -1.563,-1.788244 -2.64896,-2.001781 -0.568,-0.111686 -0.85853,0.785051 -1.21358,1.242268 -0.13984,0.180116 -0.0602,0.769448 -0.24664,0.638102 -0.3515,-0.247668 -0.1758,-0.924565 -0.52196,-1.179655 -1.60273,-1.181103 -1.61942,-0.141941 -2.48978,0.74899 -0.0751,0.07691 -0.19661,0.087 -0.29492,0.130487"
       id="path3417" />
    <path
       id="path3419"
       style="fill:#726052;fill-opacity:1;stroke:#4d493e;stroke-width:0.561019;stroke-linecap:butt;stroke-linejoin:miter;stroke-dasharray:none;stroke-opacity:1"
       d="m 247.56966,65.815521 c -2.21298,1.54337 -0.0103,4.753058 -0.14218,6.937639 1.13916,3.654592 -0.49423,7.300205 -1.22651,10.855314 -0.27348,1.801146 -2.71657,4.795054 0.60355,4.280794 1.61774,-0.277238 6.50675,1.160074 3.61762,-1.672466 -1.18507,-2.297355 -0.66791,-5.104924 -0.71392,-7.633203 -0.003,-2.425821 1.13883,-4.885633 3.14004,-6.318299 1.4265,-0.611793 2.9917,-3.256255 0.42271,-1.72529 -2.02003,2.82864 -4.96676,2.454366 -5.03434,-1.182377 -0.48191,-1.106228 -0.94177,-2.317625 -0.66697,-3.542112 z" />
    <text
       xml:space="preserve"
       style="font-style:oblique;font-weight:500;font-size:15.9492px;line-height:1.25;font-family:'CMU Bright';-inkscape-font-specification:'CMU Bright Medium Oblique';fill:#43724b;fill-opacity:1;stroke-width:0.398732"
       x="238.25778"
       y="43.992981"
       id="text3810"><tspan
         sodipodi:role="line"
         id="tspan3808"
         style="fill:#43724b;fill-opacity:1;stroke-width:0.398732"
         x="238.25778"
         y="43.992981">h</tspan></text>
    <text
       xml:space="preserve"
       style="font-style:oblique;font-weight:500;font-size:15.9492px;line-height:1.25;font-family:'CMU Bright';-inkscape-font-specification:'CMU Bright Medium Oblique';fill:#c636ca;fill-opacity:1;stroke-width:0.398732"
       x="195.42636"
       y="61.225216"
       id="text4416"><tspan
         sodipodi:role="line"
         id="tspan4414"
         style="fill:#c636ca;fill-opacity:1;stroke-width:0.398732"
         x="195.42636"
         y="61.225216">d</tspan></text>
    <text
       xml:space="preserve"
       style="font-style:oblique;font-weight:500;font-size:15.9492px;line-height:1.25;font-family:'CMU Bright';-inkscape-font-specification:'CMU Bright Medium Oblique';fill:#5a3434;fill-opacity:1;stroke-width:0.398732"
       x="145.22418"
       y="44.150345"
       id="text4696"><tspan
         sodipodi:role="line"
         id="tspan4694"
         style="fill:#5a3434;fill-opacity:1;stroke-width:0.398732"
         x="145.22418"
         y="44.150345">f</tspan></text>
    <text
       xml:space="preserve"
       style="font-style:oblique;font-weight:500;font-size:15.9492px;line-height:1.25;font-family:'CMU Bright';-inkscape-font-specification:'CMU Bright Medium Oblique';fill:#eca61c;fill-opacity:1;stroke-width:0.398732"
       x="84.174942"
       y="61.170097"
       id="text4838"><tspan
         sodipodi:role="line"
         id="tspan4836"
         style="fill:#eca61c;fill-opacity:1;stroke-width:0.398732"
         x="84.174942"
         y="61.170097">a</tspan></text>
    <path
       style="fill:#eceae7;fill-opacity:1;stroke:#7b570f;stroke-width:0.435918;stroke-linecap:butt;stroke-linejoin:miter;stroke-dasharray:none;stroke-opacity:1"
       d="m 49.090629,67.195055 c 18.25465,0.658945 36.537758,2.421441 54.803801,1.064217 2.3868,0.668694 6.28444,-1.755157 7.52591,1.136086 -0.34209,2.674205 -1.34803,5.500018 -2.7655,7.791116 -2.06652,2.199575 -5.15366,0.444357 -7.72982,1.039341 -6.962793,0.06316 -13.942303,-0.0096 -20.875173,0.752364 -4.506851,0.148109 -8.998877,0.746105 -13.411952,1.57211 -5.40466,-0.0077 -10.87217,0.08027 -16.135902,1.427276"
       id="path4870" />
    <path
       style="fill:#eca61c;fill-opacity:1;stroke:#7b570f;stroke-width:0.544118;stroke-linecap:butt;stroke-linejoin:miter;stroke-dasharray:none;stroke-opacity:1"
       d="m 29.339896,65.816546 c 23.158723,0.809254 46.353544,2.973787 69.52674,1.306972 3.028004,0.821226 7.972734,-2.15552 9.547724,1.395234 -0.434,3.284208 -1.71017,6.754607 -3.50844,9.568318 -2.6217,2.701312 -6.538186,0.545718 -9.806416,1.276421 -8.833346,0.07758 -17.687888,-0.01175 -26.483261,0.923984 -5.717607,0.181894 -11.416406,0.916295 -17.015045,1.930718 -6.856611,-0.0094 -13.792956,0.09857 -20.470779,1.752846"
       id="path4868" />
  </g>
  <g
     inkscape:label="Layer 1 copy"
     inkscape:groupmode="layer"
     id="g6728">
    <path
       style="fill:none;stroke:#000000;stroke-width:0.610054;stroke-linecap:butt;stroke-linejoin:miter;stroke-dasharray:none;stroke-opacity:1"
       d="m -19.492334,70.202126 c -4.382996,2.139991 -8.404122,4.909616 -12.37649,7.718335 -0.663939,0.414981 -2.659424,1.541833 -0.857489,1.840049 1.795222,0.163311 3.656684,-0.05841 5.371538,0.631134 2.366438,0.553398 4.697385,1.441032 6.556653,3.04935 0.208585,0.152478 0.417252,0.304847 0.626872,0.455906"
       id="path6674" />
    <path
       style="fill:#83472d;fill-opacity:1;stroke:#000000;stroke-width:0.708753;stroke-linecap:butt;stroke-linejoin:miter;stroke-dasharray:none;stroke-opacity:1"
       d="m -21.501576,71.104853 c -1.162109,2.140914 -2.055885,4.411739 -2.554026,6.741393 -0.146521,1.180711 0.01604,3.675836 1.999952,3.287895 1.677571,-0.322832 2.174736,-1.974842 2.170646,-3.289586 0.193782,-2.050272 0.20227,-4.22444 -0.842219,-6.112081 -0.160757,-0.244803 -0.370714,0.06361 -0.35346,0.212288"
       id="path6676" />
    <path
       style="fill:#000000;fill-opacity:1;stroke:#000000;stroke-width:0.373232;stroke-linecap:butt;stroke-linejoin:miter;stroke-dasharray:none;stroke-opacity:1"
       d="m -21.382687,73.730337 c -0.712244,1.429818 -1.462452,2.96436 -1.369515,4.548047 0.812179,1.65641 2.694518,-0.03433 2.254187,-1.295448 0.0667,-0.545039 0.0061,-3.062966 -0.66303,-2.810323"
       id="path6678" />
    <g
       id="g6690"
       transform="matrix(0.38314794,0.66363171,-0.66363171,0.38314794,187.95783,-68.151849)"
       style="stroke:#63533e;stroke-opacity:1">
      <path
         style="fill:#dabfb2;fill-opacity:1;stroke:#63533e;stroke-width:0.83;stroke-linecap:butt;stroke-linejoin:miter;stroke-dasharray:none;stroke-opacity:1"
         d="m 115.67673,155.87433 c -0.14978,-2.30546 1.7551,-4.04164 2.48111,-6.10874 1.11844,-2.38159 1.25136,-5.08021 2.61769,-7.36556 0.83676,-2.6231 3.32283,-3.821 5.9094,-4.01694 2.76303,-0.31951 5.66758,-0.41775 8.24977,0.79737 2.35193,0.6076 3.62117,2.84355 3.44466,5.16724 0.58789,2.57986 -1.35889,4.69569 -2.3364,6.91531 -0.76536,2.22578 -2.70098,3.62931 -4.49205,4.97599 -2.36991,2.33555 -3.97979,5.37929 -6.64138,7.41465 l -0.26786,0.31805"
         id="path6680" />
      <path
         style="fill:#dabfb2;fill-opacity:1;stroke:#63533e;stroke-width:0.826;stroke-linecap:butt;stroke-linejoin:miter;stroke-dasharray:none;stroke-opacity:1"
         d="m 122.03895,139.96884 c 1.58697,-2.29679 2.88053,-4.75919 4.13215,-7.24486 1.55216,-2.66589 3.00489,-5.41036 4.39041,-8.14913 0.6816,-1.25522 3.14526,-5.1045 3.97494,-2.22668 0.0738,2.28366 -1.40394,4.23793 -1.94337,6.40096 -1.08802,3.49993 -2.65096,6.82335 -4.38043,10.04324 -0.33166,0.27256 -0.35529,1.04519 -0.67906,1.17647"
         id="path6682" />
      <path
         style="fill:#dabfb2;fill-opacity:1;stroke:#63533e;stroke-width:0.826;stroke-linecap:butt;stroke-linejoin:miter;stroke-dasharray:none;stroke-opacity:1"
         d="m 127.2444,139.96884 c 1.58697,-2.29679 2.88053,-4.75919 4.13215,-7.24486 1.55216,-2.66589 3.00489,-5.41036 4.39041,-8.14913 0.6816,-1.25522 3.14526,-5.1045 3.97494,-2.22668 0.0738,2.28366 -1.40394,4.23793 -1.94337,6.40096 -1.08802,3.49993 -2.65096,6.82335 -4.38043,10.04324 -0.33166,0.27256 -0.35529,1.04519 -0.67906,1.17647"
         id="path6684" />
      <path
         style="fill:#dabfb2;fill-opacity:1;stroke:#63533e;stroke-width:0.83;stroke-linecap:butt;stroke-linejoin:miter;stroke-dasharray:none;stroke-opacity:1"
         d="m 131.29309,141.12561 c 0.28919,-0.48199 0.51644,-1.00705 0.86757,-1.44596 0.86355,-1.07945 1.30109,-1.38006 2.31353,-2.02434 0.76724,-0.48824 1.51283,-1.01481 2.31354,-1.44596 0.69148,-0.37234 1.80254,-0.97507 2.60273,-0.2892 0.79592,0.68223 0.9265,1.68169 1.15676,2.60273 0.0964,0.38559 0.22385,0.76472 0.2892,1.15677 0.0317,0.19017 0,0.38559 0,0.57838 0,0.0964 0,0.19279 0,0.28919 0,0.0964 0.0234,0.19568 0,0.2892 -0.0739,0.29573 -0.15287,0.59492 -0.2892,0.86757 -0.061,0.12194 -0.22822,0.16726 -0.28919,0.28919 -0.0431,0.0862 0.0305,0.19774 0,0.28919 -0.0682,0.20449 -0.16962,0.39904 -0.28919,0.57839 -0.0756,0.11343 -0.1928,0.19279 -0.28919,0.28919 -0.0964,0.0964 -0.1928,0.19279 -0.28919,0.28919"
         id="path6686" />
      <path
         style="fill:#dabfb2;fill-opacity:1;stroke:#63533e;stroke-width:0.83;stroke-linecap:butt;stroke-linejoin:miter;stroke-dasharray:none;stroke-opacity:1"
         d="m 134.185,143.14995 c 0.1928,-0.38559 0.27355,-0.85193 0.57839,-1.15677 0.21555,-0.21555 0.57447,-0.20544 0.86757,-0.28919 0.38216,-0.10919 0.76949,-0.19982 1.15677,-0.28919 0.86598,-0.19984 1.74818,-0.33423 2.60273,-0.57838 1.15363,-0.32961 2.0937,-1.4196 3.18111,0.28919 0.41724,0.65567 0.23749,1.53807 0.28919,2.31353 0.0449,0.67329 0,1.34956 0,2.02434 0,0.1928 0.0468,0.39135 0,0.57839 -0.12324,0.49295 -0.50093,0.84249 -0.86758,1.15676 -0.29794,0.25538 -1.73164,1.44421 -2.31353,1.73516 -0.27265,0.13632 -0.58454,0.17597 -0.86758,0.28919 -0.20013,0.08 -0.37389,0.22103 -0.57838,0.28919 -0.0915,0.0305 -0.30585,0.0949 -0.28919,0 l 0.72298,-4.12098"
         id="path6688"
         sodipodi:nodetypes="cssssssscsscssc" />
    </g>
    <path
       style="fill:#ececec;fill-opacity:1;stroke:none;stroke-width:0.264583px;stroke-linecap:butt;stroke-linejoin:miter;stroke-opacity:1"
       d="M 46.919095,47.644124 236.50457,8.5866301 237.1309,48.188137 Z"
       id="path6692"
       sodipodi:nodetypes="cccc" />
    <path
       style="fill:none;stroke:#9c9c9c;stroke-width:0.8;stroke-linecap:butt;stroke-linejoin:miter;stroke-dasharray:none;stroke-opacity:1"
       d="M 46.880266,47.725161 236.66078,8.9734591"
       id="path6694"
       sodipodi:nodetypes="cc" />
    <path
       style="fill:none;stroke:#5a3434;stroke-width:0.8;stroke-linecap:butt;stroke-linejoin:miter;stroke-dasharray:none;stroke-opacity:1"
       d="M 161.68942,47.725161 V 23.88766"
       id="path6696"
       sodipodi:nodetypes="cc" />
    <path
       style="fill:none;stroke:#43724b;stroke-width:0.8;stroke-linecap:butt;stroke-linejoin:miter;stroke-dasharray:none;stroke-opacity:1"
       d="M 236.7474,47.725161 V 8.6842671"
       id="path6698"
       sodipodi:nodetypes="cc" />
    <path
       style="fill:none;stroke:#c636ca;stroke-width:0.8;stroke-linecap:butt;stroke-linejoin:miter;stroke-dasharray:none;stroke-opacity:1"
       d="M 237.39306,47.869758 H 47.024867"
       id="path6700"
       sodipodi:nodetypes="cc" />
    <path
       style="fill:none;stroke:#eca61c;stroke-width:0.8;stroke-linecap:butt;stroke-linejoin:miter;stroke-dasharray:none;stroke-opacity:1"
       d="M 160.96645,47.869758 H 47.024867"
       id="path6702"
       sodipodi:nodetypes="cc" />
    <path
       style="fill:#43724b;fill-opacity:1;stroke:#183d17;stroke-width:0.630822;stroke-linecap:butt;stroke-linejoin:miter;stroke-dasharray:none;stroke-opacity:1"
       d="m 238.58539,61.883758 c -0.69768,-0.514144 -1.23912,-1.69042 -2.09306,-1.542436 -1.31014,0.227036 -2.4342,1.328442 -3.14749,2.450594 -0.28833,0.453599 1.15378,1.668338 0.65244,1.474563 -0.66887,-0.258532 -0.60839,-1.942338 -1.29055,-1.721205 -1.06046,1.056973 -2.12094,2.11394 -3.18142,3.170908 0.0596,0.267511 0.3756,0.611825 0.17876,0.802524 -0.69913,0.677329 -2.61588,0.500251 -2.52372,1.469306 1.01574,10.680515 2.43994,0.862975 4.95472,3.626428 0.64017,0.703474 -7.76965,4.713474 2.69722,2.509387 0.99237,-0.208965 1.10525,-1.702071 1.70687,-2.518466 0.0902,-0.122384 -0.23104,0.288749 -0.16443,0.425399 0.59303,1.216505 0.99374,2.674744 2.07347,3.49068 0.52168,0.394226 1.32093,-0.18425 1.89997,-0.488013 0.87763,-0.460414 1.62437,-1.138863 2.39324,-1.764215 0.18647,-0.151672 0.44802,-0.315788 0.45933,-0.555889 0.007,-0.151866 -0.5672,-0.219235 -0.4254,-0.164425 1.03925,0.401686 1.22875,0.938793 1.73554,-0.06262 0.24022,-0.474764 0.33527,-1.014136 0.57549,-1.488903 0.10852,-0.214475 0.33193,-0.759753 0.45933,-0.555889 0.45924,0.734997 0.32802,1.732244 0.749,2.489793 1.46182,2.630455 2.74184,3.514504 4.56852,-0.434478 0.53491,-1.156475 0.0826,-2.551375 0.2519,-3.814266 0.0915,-0.682217 0.84022,-1.383478 0.52722,-1.996512 -2.41934,-4.738512 -2.03749,-2.498866 -4.52934,-3.462011 -0.15853,-0.06127 -0.22878,-0.251416 -0.34318,-0.377121 -0.88298,-0.667261 -1.563,-1.788244 -2.64896,-2.001781 -0.568,-0.111686 -0.85853,0.785051 -1.21358,1.242268 -0.13984,0.180116 -0.0602,0.769448 -0.24664,0.638102 -0.3515,-0.247668 -0.1758,-0.924565 -0.52196,-1.179655 -1.60273,-1.181103 -1.61942,-0.141941 -2.48978,0.74899 -0.0751,0.07691 -0.19661,0.087 -0.29492,0.130487"
       id="path6704" />
    <path
       id="path6706"
       style="fill:#726052;fill-opacity:1;stroke:#4d493e;stroke-width:0.561019;stroke-linecap:butt;stroke-linejoin:miter;stroke-dasharray:none;stroke-opacity:1"
       d="m 237.67359,65.815521 c -2.21298,1.54337 -0.0103,4.753058 -0.14218,6.937639 1.13916,3.654592 -0.49423,7.300205 -1.22651,10.855314 -0.27348,1.801146 -2.71657,4.795054 0.60355,4.280794 1.61774,-0.277238 6.50675,1.160074 3.61762,-1.672466 -1.18507,-2.297355 -0.66791,-5.104924 -0.71392,-7.633203 -0.003,-2.425821 1.13883,-4.885633 3.14004,-6.318299 1.4265,-0.611793 2.9917,-3.256255 0.42271,-1.72529 -2.02003,2.82864 -4.96676,2.454366 -5.03434,-1.182377 -0.48191,-1.106228 -0.94177,-2.317625 -0.66697,-3.542112 z" />
    <text
       xml:space="preserve"
       style="font-style:oblique;font-weight:500;font-size:15.9492px;line-height:1.25;font-family:'CMU Bright';-inkscape-font-specification:'CMU Bright Medium Oblique';fill:#43724b;fill-opacity:1;stroke-width:0.398732"
       x="240.51259"
       y="40.736046"
       id="text6710"><tspan
         sodipodi:role="line"
         id="tspan6708"
         style="fill:#43724b;fill-opacity:1;stroke-width:0.398732"
         x="240.51259"
         y="40.736046">h</tspan></text>
    <text
       xml:space="preserve"
       style="font-style:oblique;font-weight:500;font-size:15.9492px;line-height:1.25;font-family:'CMU Bright';-inkscape-font-specification:'CMU Bright Medium Oblique';fill:#c636ca;fill-opacity:1;stroke-width:0.398732"
       x="183.40077"
       y="61.225216"
       id="text6714"><tspan
         sodipodi:role="line"
         id="tspan6712"
         style="fill:#c636ca;fill-opacity:1;stroke-width:0.398732"
         x="183.40077"
         y="61.225216">d – s</tspan></text>
    <text
       xml:space="preserve"
       style="font-style:oblique;font-weight:500;font-size:15.9492px;line-height:1.25;font-family:'CMU Bright';-inkscape-font-specification:'CMU Bright Medium Oblique';fill:#5a3434;fill-opacity:1;stroke-width:0.398732"
       x="163.76366"
       y="40.89341"
       id="text6718"><tspan
         sodipodi:role="line"
         id="tspan6716"
         style="fill:#5a3434;fill-opacity:1;stroke-width:0.398732"
         x="163.76366"
         y="40.89341">f'</tspan></text>
    <text
       xml:space="preserve"
       style="font-style:oblique;font-weight:500;font-size:15.9492px;line-height:1.25;font-family:'CMU Bright';-inkscape-font-specification:'CMU Bright Medium Oblique';fill:#eca61c;fill-opacity:1;stroke-width:0.398732"
       x="102.71441"
       y="61.170097"
       id="text6722"><tspan
         sodipodi:role="line"
         id="tspan6720"
         style="fill:#eca61c;fill-opacity:1;stroke-width:0.398732"
         x="102.71441"
         y="61.170097">a</tspan></text>
    <path
       style="fill:#eceae7;fill-opacity:1;stroke:#7b570f;stroke-width:0.435918;stroke-linecap:butt;stroke-linejoin:miter;stroke-dasharray:none;stroke-opacity:1"
       d="m 67.630097,67.195055 c 18.25465,0.658945 36.537763,2.421441 54.803803,1.064217 2.3868,0.668694 6.28444,-1.755157 7.52591,1.136086 -0.34209,2.674205 -1.34803,5.500018 -2.7655,7.791116 -2.06652,2.199575 -5.15366,0.444357 -7.72982,1.039341 -6.96279,0.06316 -13.9423,-0.0096 -20.875175,0.752364 -4.506851,0.148109 -8.998877,0.746105 -13.411952,1.57211 -5.40466,-0.0077 -10.87217,0.08027 -16.135902,1.427276"
       id="path6724" />
    <path
       style="fill:#eca61c;fill-opacity:1;stroke:#7b570f;stroke-width:0.544118;stroke-linecap:butt;stroke-linejoin:miter;stroke-dasharray:none;stroke-opacity:1"
       d="m 47.879364,65.816546 c 23.158723,0.809254 46.353544,2.973787 69.526736,1.306972 3.02801,0.821226 7.97274,-2.15552 9.54773,1.395234 -0.434,3.284208 -1.71017,6.754607 -3.50844,9.568318 -2.6217,2.701312 -6.53819,0.545718 -9.80642,1.276421 -8.83334,0.07758 -17.687886,-0.01175 -26.483259,0.923984 -5.717607,0.181894 -11.416406,0.916295 -17.015045,1.930718 -6.856611,-0.0094 -13.792956,0.09857 -20.470779,1.752846"
       id="path6726" />
  </g>
</svg>
